<svg width="5725" height="3218" viewBox="0 0 5725 3218" fill="none" xmlns="http://www.w3.org/2000/svg">
<g clip-path="url(#clip0_4_19)">
<path d="M292.5 341.5V346.5V341.5Z" stroke="black" stroke-width="1.5"/>
<path d="M317.5 541.5H302.5V546.5H317.5V541.5Z" fill="white" stroke="black" stroke-width="1.5"/>
<path d="M3237 1155C3174 1155 3124 1206 3124 1268C3124 1331 3175 1381 3237 1381C3300 1381 3350 1330 3350 1268C3350 1205 3299 1155 3237 1155Z" fill="#CCCCCC" stroke="#CCCCCC" stroke-width="45.9689"/>
<path d="M3661 2369L3147 1640L2775 2061L2273 1309L1692 2157" stroke="#CCCCCC" stroke-width="45.9689"/>
<path d="M1727 1021H3626C3645 1021 3661 1037 3661 1056V2461C3661 2480 3645 2496 3626 2496H1727C1708 2496 1692 2480 1692 2461V1056C1692 1037 1708 1021 1727 1021Z" stroke="#CCCCCC" stroke-width="45.9689"/>
<path d="M2217 314L4011 938C4029 944 4039 964 4033 982L3672 2020V2455C3672 2474 3656 2490 3637 2490H1738C1719 2490 1703 2474 1703 2455V1050C1703 1031 1719 1015 1738 1015H1937L2173 335C2179 317 2199 307 2217 313V314Z" stroke="#CCCCCC" stroke-width="45.9689"/>
<path d="M2088 2844V2635H2129L2215 2775V2635H2254V2844H2212L2127 2707V2844H2088ZM2289 2766C2289 2753 2292 2740 2299 2727C2306 2714 2315 2705 2327 2698C2339 2691 2352 2688 2367 2688C2390 2688 2409 2696 2423 2710C2438 2725 2445 2744 2445 2766C2445 2789 2438 2808 2423 2823C2408 2838 2390 2846 2367 2846C2353 2846 2340 2843 2327 2836C2314 2830 2305 2820 2298 2808C2291 2796 2288 2781 2288 2764L2289 2766ZM2330 2768C2330 2783 2334 2795 2341 2803C2348 2811 2357 2815 2367 2815C2377 2815 2386 2811 2393 2803C2400 2795 2404 2783 2404 2768C2404 2753 2400 2742 2393 2734C2386 2726 2377 2722 2367 2722C2356 2722 2348 2726 2341 2734C2334 2742 2330 2754 2330 2769V2768ZM2558 2672V2635H2598V2672H2558ZM2558 2844V2692H2598V2844H2558ZM2636 2692H2673V2713C2686 2697 2702 2689 2720 2689C2730 2689 2738 2691 2745 2695C2752 2699 2758 2705 2763 2713C2770 2705 2777 2699 2785 2695C2793 2691 2801 2689 2810 2689C2821 2689 2831 2691 2838 2696C2846 2701 2851 2707 2855 2716C2858 2723 2859 2733 2859 2747V2844H2819V2758C2819 2743 2818 2733 2815 2729C2811 2723 2805 2720 2798 2720C2792 2720 2787 2722 2782 2725C2777 2729 2773 2734 2771 2740C2769 2747 2768 2757 2768 2771V2844H2728V2761C2728 2746 2727 2737 2726 2733C2724 2729 2722 2725 2719 2723C2716 2721 2712 2720 2707 2720C2701 2720 2695 2722 2690 2725C2685 2728 2681 2733 2679 2739C2677 2745 2676 2756 2676 2770V2844H2636V2692ZM2928 2739L2892 2732C2896 2717 2903 2706 2913 2699C2923 2692 2938 2688 2957 2688C2975 2688 2988 2690 2997 2694C3006 2698 3012 2704 3015 2710C3019 2717 3020 2728 3020 2746L3019 2793C3019 2806 3020 2816 3021 2822C3022 2828 3025 2835 3028 2842H2988C2987 2839 2986 2835 2984 2830C2983 2828 2983 2826 2982 2825C2975 2832 2968 2837 2960 2840C2952 2843 2944 2845 2935 2845C2919 2845 2907 2841 2898 2832C2889 2823 2885 2813 2885 2800C2885 2791 2887 2784 2891 2777C2895 2770 2901 2765 2908 2762C2915 2758 2926 2755 2940 2753C2959 2749 2972 2746 2979 2743V2739C2979 2731 2977 2726 2973 2722C2969 2719 2962 2717 2951 2717C2944 2717 2938 2719 2934 2721C2930 2724 2927 2729 2924 2736L2928 2739ZM2982 2771C2977 2773 2969 2775 2958 2777C2947 2779 2940 2782 2936 2784C2931 2788 2928 2793 2928 2798C2928 2804 2930 2809 2934 2813C2938 2817 2944 2819 2950 2819C2957 2819 2964 2817 2971 2812C2976 2808 2979 2804 2981 2799C2982 2795 2983 2789 2983 2779V2771H2982ZM3057 2853L3103 2859C3104 2865 3106 2868 3108 2870C3112 2873 3118 2874 3126 2874C3137 2874 3144 2872 3150 2869C3154 2867 3156 2863 3158 2859C3159 2856 3160 2849 3160 2841V2819C3148 2836 3133 2844 3115 2844C3095 2844 3079 2835 3067 2818C3058 2804 3053 2787 3053 2767C3053 2742 3059 2722 3071 2709C3083 2696 3098 2689 3117 2689C3136 2689 3151 2697 3163 2714V2693H3200V2829C3200 2847 3198 2860 3195 2869C3192 2878 3188 2885 3183 2890C3178 2895 3171 2899 3162 2902C3153 2905 3142 2906 3128 2906C3102 2906 3084 2901 3073 2893C3062 2884 3057 2873 3057 2859C3057 2858 3057 2856 3057 2854H3056L3057 2853ZM3093 2765C3093 2781 3096 2793 3102 2800C3108 2808 3116 2811 3125 2811C3135 2811 3143 2807 3150 2799C3157 2791 3160 2780 3160 2765C3160 2749 3157 2738 3150 2730C3143 2722 3135 2719 3126 2719C3116 2719 3108 2723 3102 2730C3096 2738 3093 2749 3093 2764V2765ZM3327 2796L3367 2803C3362 2818 3354 2829 3343 2836C3332 2844 3318 2848 3301 2848C3275 2848 3255 2839 3243 2822C3233 2808 3228 2791 3228 2770C3228 2745 3235 2725 3248 2711C3261 2697 3278 2690 3298 2690C3321 2690 3338 2698 3351 2712C3364 2727 3370 2750 3370 2781H3270C3270 2793 3274 2802 3280 2809C3286 2816 3294 2819 3303 2819C3309 2819 3315 2817 3319 2814C3323 2810 3327 2805 3329 2797L3327 2796ZM3329 2755C3329 2743 3326 2734 3320 2728C3314 2722 3307 2719 3299 2719C3290 2719 3283 2722 3277 2729C3271 2735 3268 2744 3269 2755H3329Z" fill="#CCCCCC"/>
</g>
<defs>
<clipPath id="clip0_4_19">
<rect width="5725" height="3218" fill="white"/>
</clipPath>
</defs>
</svg>
