<?xml version="1.0" standalone="no"?>
<!DOCTYPE svg PUBLIC "-//W3C//DTD SVG 20010904//EN"
 "http://www.w3.org/TR/2001/REC-SVG-20010904/DTD/svg10.dtd">
<svg version="1.0" xmlns="http://www.w3.org/2000/svg"
 width="700.000000pt" height="700.000000pt" viewBox="0 0 700.000000 700.000000"
 preserveAspectRatio="xMidYMid meet">
<metadata>
Created by potrace 1.14, written by Peter Selinger 2001-2017
</metadata>
<g transform="translate(0.000000,700.000000) scale(0.100000,-0.100000)"
fill="#000000" stroke="none">
<path d="M2518 6994 c-3 -2 -2 -24 2 -49 7 -48 5 -450 -3 -500 -3 -16 -8 -61
-11 -100 -4 -38 -9 -77 -11 -85 -2 -8 -6 -28 -9 -45 -14 -83 -19 -109 -46
-222 -54 -226 -136 -446 -260 -698 -121 -246 -226 -424 -498 -845 -432 -669
-607 -1018 -717 -1425 -28 -105 -52 -222 -60 -291 -3 -27 -8 -60 -10 -74 -24
-135 -24 -460 0 -645 12 -92 46 -265 66 -330 11 -39 25 -86 31 -105 61 -207
224 -507 378 -695 339 -414 863 -712 1440 -818 126 -24 186 -33 275 -42 33 -4
76 -9 95 -11 63 -10 533 -12 610 -3 149 16 176 20 260 34 854 148 1521 675
1855 1465 27 63 100 265 104 285 1 6 7 28 13 50 6 22 12 45 14 50 1 6 11 53
22 105 26 117 28 133 37 206 4 33 9 67 11 77 9 49 18 226 17 342 0 121 -11
344 -18 355 -1 3 -5 37 -9 75 -7 80 -9 91 -37 239 -70 370 -241 819 -422 1111
-117 189 -261 392 -350 493 -248 282 -471 480 -786 696 -106 73 -115 77 -101
42 46 -122 81 -337 82 -506 2 -305 -94 -626 -264 -878 -51 -77 -236 -272 -257
-272 -7 0 -11 45 -12 138 -1 172 -1 170 -24 412 -6 70 -29 221 -51 335 -82
439 -242 879 -447 1225 -24 42 -150 233 -157 240 -3 3 -32 39 -65 80 -136 171
-275 306 -445 433 -89 66 -236 158 -242 151z m1439 -3861 c123 -141 222 -288
305 -453 51 -102 121 -279 133 -335 8 -41 13 -61 23 -100 11 -39 13 -54 31
-184 9 -72 7 -308 -4 -386 -5 -42 -16 -94 -40 -210 -3 -11 -14 -45 -26 -75
-11 -30 -24 -67 -29 -82 -13 -42 -96 -203 -131 -255 -109 -161 -247 -289 -402
-372 -235 -127 -544 -128 -797 -4 -209 103 -360 318 -388 552 -30 250 45 463
231 660 24 25 99 98 168 161 347 323 498 493 643 728 59 97 159 291 192 374
11 27 22 48 25 48 4 0 34 -30 66 -67z"/>
</g>
</svg>
